<svg xmlns="http://www.w3.org/2000/svg" viewBox="490 395 1020 920" fill="none"><defs><linearGradient id="_Linear1" x1="0" y1="0" x2="1" y2="0" gradientUnits="userSpaceOnUse" gradientTransform="matrix(-236.247498,-674.824707,674.824707,-236.247498,1150.866943,1212.245728)"><stop offset="0" style="stop-color:#1e3a74;stop-opacity:1" /><stop offset="1" style="stop-color:#299cd7;stop-opacity:1" /></linearGradient></defs><g id="Layer-1"><path d="M1274.297,1160.093l-0,-65.111l-19.149,-0l0,-58.726l58.727,0l0,58.726l-19.15,0l0,65.111l19.15,-0l-0,58.72l-58.727,0l0,-58.72l19.149,0Zm-75.796,80.49l-19.147,0l0,58.73l58.723,-0l0,-58.73l-19.145,0l0,-194.534l75.793,-75.798l0,-157.411l78.344,-78.336l0,-117.904l19.143,0l0,-58.727l-58.72,0l0,58.727l19.147,0l0,109.444l-78.342,78.334l0,157.414l-55.365,55.366l0,-229.193l66.462,-66.462l0,-138.421l19.15,0l0,-58.728l-58.727,0l0,58.728l19.143,0l0,129.962l-46.028,46.029l0,-76.207l-2.609,-6.295l-43.527,-43.524l0,-142.763l19.149,-0l0,-58.73l-58.726,0l0,58.73l19.146,0l0,147.533l2.608,6.298l43.528,43.527l0,71.431l-128.649,-128.65l0,-82.094l19.149,-0l-0,-58.729l-58.727,0l0,58.729l19.146,0l0,86.871l2.612,6.291l146.469,146.474l0,452.618Zm-355.905,-295.581l0,-19.147l-58.723,-0l0,58.724l58.723,-0l0,-19.149l74.386,0l112.609,112.611l0,62.809l-19.143,0l0,58.729l58.719,-0l0,-58.729l-19.146,0l0,-190.694l-2.608,-6.294l-34.493,-34.493l0,-44.279l-58.723,0l0,58.726l44.282,0l31.112,31.111l0,94.223l-104.153,-104.148l-82.842,0Zm518.45,122.949l0,-227.782l2.614,-6.294l62.345,-62.35l0,-70.049l-19.147,-0l0,-58.723l58.727,0l-0,58.723l-19.147,-0l0,74.828l-2.614,6.295l-62.345,62.35l0,99.165l53.909,-53.911l0,-44.276l58.729,0l-0,58.723l-44.283,0l-68.355,68.358l0,94.943l19.151,0l0,58.723l-58.728,0l0,-58.723l19.144,0Zm-373.315,-597.02l0,178.406l143.355,143.35l0,414.893l19.148,0l0,58.727l-58.722,-0l0,-58.727l19.146,0l0,-292.954l-98.271,-98.273l-62.587,0l-77.184,77.185l-169.098,0l0,19.146l-58.726,-0l-0,-58.726l58.726,0l0,19.149l160.641,0l56.752,-56.754l-357.3,0l-0,19.143l-58.729,0l0,-58.721l58.729,0l0,19.147l176.76,-0l-61.096,-61.095l-89.391,0l0,19.152l-58.726,0l0,-58.729l58.726,0l0,19.146l97.855,-0l81.522,81.526l80.6,0l-54.555,-54.556l0,-48.43l-74.068,-74.061l-37.453,-0.462l0,19.111l-58.726,0l0,-58.726l58.726,0l0,19.176l45.944,0.489l65.577,65.579l0,-137.516l-19.147,0l-0,-58.726l58.722,-0l0,58.726l-19.142,0l0,206.376l63.019,63.02l142.089,0l89.811,89.815l0,-84.586l-51.125,-51.129l-0.771,-0.642l-114.797,0l-61.115,-61.121l-2.61,-6.291l-0,-97.728l-19.147,0l0,-58.726l58.73,0l0,58.726l-19.15,0l0,92.952l51.752,51.754l86.022,0l-71.149,-71.153l0,-186.862l-19.14,0l-0,-58.726l58.72,0l0,58.726l-19.147,0Z" style="fill:url(#_Linear1);" /></g></svg>
